<svg version="1.0" xmlns="http://www.w3.org/2000/svg"
 width="200.000000pt" height="200.000000pt" viewBox="0 0 200.000000 200.000000"
 preserveAspectRatio="xMidYMid meet">
<g transform="translate(0.000000,200.000000) scale(0.100000,-0.100000)"
fill="#ffc35b" stroke="none">
<path d="M804 1941 c-334 -79 -590 -312 -702 -640 -33 -100 -36 -115 -40 -262
-4 -145 -2 -164 22 -260 108 -419 470 -713 891 -724 124 -3 205 7 315 41 253
78 455 251 571 489 79 163 94 231 94 425 -1 142 -4 176 -24 245 -97 334 -341
579 -671 675 -110 31 -343 37 -456 11z m160 -286 c61 -39 141 -115 184 -173
l30 -43 116 96 c64 52 118 95 121 95 3 0 5 -51 5 -112 -1 -102 -3 -115 -23
-138 -17 -19 -104 -93 -125 -106 -2 -2 6 -44 18 -95 29 -125 29 -264 1 -384
l-22 -90 28 -23 c15 -13 49 -43 76 -67 l47 -44 0 -115 c0 -64 -2 -116 -5 -116
-2 0 -55 42 -116 92 -61 51 -114 94 -117 95 -4 2 -17 -12 -29 -30 -57 -83
-245 -237 -289 -237 -20 0 -19 1 32 56 57 61 111 139 153 222 38 75 53 56
-132 173 -155 99 -351 197 -470 237 -48 16 -87 34 -86 38 1 5 38 21 81 36 97
33 298 129 404 193 62 38 214 136 232 151 6 4 -53 117 -91 177 -20 31 -59 80
-87 109 -27 28 -50 56 -50 60 0 10 43 -12 114 -57z"/>
<path d="M1071 1145 c-30 -19 -107 -62 -172 -97 l-117 -62 112 -60 c61 -32
140 -76 175 -98 35 -21 65 -37 67 -35 10 10 25 202 19 252 -10 95 -17 135 -24
134 -3 0 -30 -16 -60 -34z"/>
</g>
</svg>
