<svg xmlns="http://www.w3.org/2000/svg" xmlns:xlink="http://www.w3.org/1999/xlink" aria-hidden="true" focusable="false" width="1em" height="1em" style="color: rgb(255, 255, 255); font-size: 35px; filter: #ffc35b(100%); transform: rotate(360deg);" preserveAspectRatio="xMidYMid meet" viewBox="0 0 256 256" class="iconify" data-icon="logos:browserstack" data-inline="false"><defs><radialGradient cx="50.141%" cy="50.003%" fx="50.141%" fy="50.003%" r="50.119%" id="IconifyId-17d9b6ee131-74565-4"><stop stop-color="#ffc35b" offset="0%"></stop><stop stop-color="#252734" offset="100%"></stop></radialGradient></defs><circle fill="#ffc35b" cx="127.949" cy="128.603" r="127.397"></circle><circle fill="#252734" cx="114.961" cy="115.615" r="114.685"></circle><circle fill="#ffc35b" cx="130.16" cy="100.416" r="99.485"></circle><circle fill="#ffc35b" cx="138.174" cy="108.43" r="91.471"></circle><circle fill="#ffc35b" cx="131.542" cy="115.062" r="84.839"></circle><circle fill="#ffc35b" cx="118.001" cy="101.798" r="71.298"></circle><circle fill="#252734" cx="129.607" cy="89.915" r="59.691"></circle><circle fill="#ffc35b" cx="137.069" cy="97.376" r="52.506"></circle><circle fill="url(#IconifyId-17d9b6ee131-74565-4)" cx="129.331" cy="104.837" r="44.768"></circle><circle fill="#252734" cx="129.331" cy="104.837" r="44.768"></circle><path d="M141.088 98.971c4.439 1.992 10.56-2.016 13.672-8.951c3.112-6.936 2.036-14.173-2.402-16.164c-4.44-1.992-10.56 2.016-13.672 8.951c-3.112 6.936-2.037 14.173 2.402 16.164z" fill="#ffc35b"></path></svg>