<svg width="80" height="80" viewBox="0 0 80 80" fill="none" xmlns="http://www.w3.org/2000/svg">
<path fill-rule="evenodd" clip-rule="evenodd" d="M40 0C62.0914 0 80 17.9086 80 40C80 62.0914 62.0914 80 40 80C17.9086 80 0 62.0914 0 40C0 17.9086 17.9086 0 40 0ZM46.9286 32.3214H38.8929V52.3214C38.8929 55.4773 36.3345 58.0357 33.1786 58.0357C30.0227 58.0357 27.4643 55.4773 27.4643 52.3214L27.3957 52.3214C27.1107 51.0441 25.9704 50.0893 24.6071 50.0893C23.2439 50.0893 22.1036 51.0441 21.8186 52.3214L21.75 52.3214L21.7515 52.5104C21.7528 52.5862 21.7547 52.6618 21.7576 52.7371C21.7525 52.8062 21.75 52.876 21.75 52.9464C21.75 53.1587 21.7731 53.3655 21.8168 53.5646C22.4364 59.2917 27.2868 63.75 33.1786 63.75C39.4904 63.75 44.6071 58.6333 44.6071 52.3214L44.6071 38.0357L46.9286 38.0357L46.9758 38.0353C48.532 38.0101 49.7857 36.7407 49.7857 35.1786C49.7857 33.6006 48.5065 32.3214 46.9286 32.3214ZM46.9286 23.75H33.1786L33.1318 23.7504C31.5911 23.7751 30.3468 25.0193 30.3218 26.5599L30.3214 26.6071V52.3214L30.3218 52.3687C30.347 53.9248 31.6164 55.1786 33.1786 55.1786L33.2258 55.1782C34.782 55.153 36.0357 53.8836 36.0357 52.3214L36.0357 29.4643L46.9286 29.4643C50.0845 29.4643 52.6429 32.0227 52.6429 35.1786C52.6429 38.3345 50.0845 40.8929 46.9286 40.8929V46.6071L47.1176 46.6056C53.3422 46.5047 58.3571 41.4273 58.3571 35.1786C58.3571 28.8667 53.2404 23.75 46.9286 23.75Z" fill="#FFC35B"/>
</svg>
